<svg width="180" height="80" viewBox="0 0 180 80" fill="none" xmlns="http://www.w3.org/2000/svg">
<path d="M85.3222 22.163C85.1972 22.326 85.1914 22.4012 85.1914 24.6328C85.1914 26.8645 85.1972 26.9397 85.3222 27.1027L85.4481 27.2656H88.6956C91.7606 27.2656 91.9489 27.2594 92.0423 27.1528C92.1364 27.0462 92.1489 26.783 92.1489 24.614V22.1943L92.0114 22.1003C91.8856 22.0125 91.4656 22 88.6639 22H85.4481L85.3222 22.163Z" fill="white"/>
<path d="M121.423 22.1254C121.297 22.2507 121.297 22.3322 121.297 36.5746C121.297 50.8169 121.297 50.8984 121.423 51.0238C121.548 51.1491 121.629 51.1491 124.952 51.1491C128.174 51.1491 128.368 51.1429 128.462 51.0363C128.563 50.9297 128.569 49.8327 128.569 36.562C128.569 22.7334 128.563 22.2006 128.456 22.1066C128.349 22.0125 128.017 22 124.945 22C121.629 22 121.548 22 121.423 22.1254Z" fill="white"/>
<path d="M39.4594 25.29C37.1901 25.6097 34.9146 26.456 33.1594 27.6282C29.0911 30.3426 26.6463 34.7055 26.4708 39.5511C26.2828 44.7667 28.8027 49.6122 33.2221 52.546C34.037 53.0851 35.5227 53.8185 36.4818 54.1445C41.9543 56.0125 47.9283 54.6083 51.984 50.4962C53.7895 48.6657 55.1121 46.3401 55.7578 43.8514C56.1465 42.3407 56.1903 41.952 56.1966 40.084C56.1966 38.5795 56.1778 38.3036 56.0461 37.5765C55.3566 33.7464 53.3506 30.4616 50.279 28.1485C48.3796 26.7193 46.3423 25.8479 43.816 25.3715C42.926 25.2085 40.3809 25.1584 39.4594 25.29ZM43.4588 29.7658C47.6085 30.6685 50.7555 33.8153 51.6644 37.984C51.7897 38.5606 51.8023 38.8177 51.8023 40.084C51.8023 41.344 51.7897 41.6072 51.6644 42.1652C51.4136 43.3061 50.9121 44.6099 50.4232 45.3997L50.2351 45.7007L48.48 42.9926C47.5208 41.5007 46.7247 40.2595 46.7122 40.2281C46.6996 40.2031 47.3955 40.178 48.2605 40.178H49.834V39.7141C49.834 38.7487 49.4955 37.401 48.994 36.3729C47.7841 33.8906 45.4334 32.1416 42.694 31.684C41.9229 31.5524 40.3558 31.5837 39.6474 31.7404C38.2056 32.0601 36.9269 32.6932 35.8361 33.621C35.6042 33.8216 35.3973 33.9721 35.3848 33.9595C35.3722 33.947 35.1591 33.5332 34.9146 33.0317L34.4695 32.1353L34.6451 31.9849C35.0149 31.6777 36.1433 30.9443 36.6322 30.6998C37.6478 30.1921 38.6633 29.8598 39.7979 29.678C40.6128 29.5464 42.6564 29.5965 43.4588 29.7658ZM34.3442 37.1941C35.2469 38.8491 35.9803 40.2219 35.9803 40.2406C35.9803 40.2657 35.2719 40.272 34.4069 40.2532L32.8272 40.2219L32.8774 40.7171C33.0654 42.8171 33.8991 44.6099 35.3597 46.0705C36.5507 47.2678 37.9737 48.0326 39.6976 48.4024C40.5439 48.5779 42.0734 48.5967 42.8945 48.4337C44.4116 48.1266 45.9536 47.3744 46.9943 46.4278L47.3265 46.1207L47.7966 47.0735L48.2668 48.0326L47.9095 48.3147C44.7062 50.8221 40.3119 51.286 36.7263 49.4932C31.4731 46.8666 29.3543 40.6042 31.9559 35.3825C32.2442 34.7995 32.6516 34.1288 32.683 34.1664C32.6955 34.1789 33.4415 35.5455 34.3442 37.1941Z" fill="white"/>
<path d="M141.168 28.7139C139.826 28.8644 138.491 29.2593 137.25 29.8673C135.89 30.5318 134.937 31.2339 133.865 32.356C132.185 34.1175 131.145 36.2677 130.787 38.7375C130.65 39.7217 130.693 41.4267 130.888 42.3983C131.584 45.9088 133.802 48.8613 136.975 50.5162C138.68 51.4063 140.479 51.8389 142.428 51.8389C144.321 51.8326 146.064 51.4314 147.7 50.6103C148.427 50.2467 148.477 50.2467 148.515 50.6603C148.54 50.8735 148.59 51.0114 148.665 51.0679C148.753 51.1305 149.418 51.1493 152.013 51.1493C155.072 51.1493 155.26 51.1431 155.354 51.0365C155.455 50.9299 155.46 50.0774 155.46 40.0351V29.1465L155.31 29.0524C155.185 28.9647 154.765 28.9584 151.95 28.9709L148.74 28.9897L148.621 29.1402C148.527 29.253 148.502 29.3847 148.502 29.7169C148.502 29.9488 148.471 30.162 148.44 30.1808C148.402 30.1996 148.032 30.0491 147.606 29.8423C145.631 28.8769 143.318 28.4694 141.168 28.7139ZM144.428 35.0013C145.462 35.1894 146.27 35.6094 147.004 36.3554C148.164 37.5213 148.71 39.17 148.502 40.9002C148.183 43.6583 146.195 45.5076 143.544 45.5138C142.045 45.5201 140.855 45.0437 139.764 44.0093C139.043 43.3198 138.535 42.4423 138.285 41.4706C138.134 40.8688 138.115 39.7342 138.253 39.0947C138.491 37.9602 139.237 36.7879 140.171 36.0733C141.394 35.133 142.955 34.7381 144.428 35.0013Z" fill="white"/>
<path d="M11.3775 28.8007C10.174 28.9762 8.83251 29.3962 7.76056 29.9353C6.98952 30.3239 6.95818 30.3177 6.95818 29.7786C6.95818 29.4401 6.9331 29.3147 6.82654 29.183L6.70116 29.0201H3.47282C0.332237 29.0201 0.244476 29.0263 0.125373 29.1454C0 29.2708 0 29.3523 0 43.8015C0 57.8056 0.00626862 58.3447 0.112835 58.4387C0.219402 58.5327 0.54537 58.5453 3.49162 58.5453C6.56952 58.5453 6.75758 58.539 6.85161 58.4325C6.94564 58.3259 6.95818 57.9561 6.95818 54.4017C6.95818 51.5558 6.97698 50.465 7.02713 50.4149C7.08354 50.3585 7.2716 50.4274 7.77936 50.6781C8.63193 51.1107 9.7101 51.4805 10.7193 51.6937C11.4403 51.8504 11.622 51.863 13.0074 51.8692C14.3364 51.8692 14.5934 51.8504 15.2328 51.725C20.0094 50.7596 23.6265 47.2116 24.573 42.5729C25.181 39.5889 24.5605 36.4985 22.8491 33.9409C20.9623 31.12 18.0662 29.3084 14.6623 28.8069C13.8537 28.6878 12.1799 28.6878 11.3775 28.8007ZM12.6752 35.0693C13.8975 35.1696 15.3456 35.9719 16.173 37C16.5617 37.4764 17.0758 38.5045 17.2074 39.0499C17.8781 41.877 16.173 44.6791 13.3145 45.4501C12.5874 45.6507 11.3211 45.6507 10.6378 45.4564C9.44051 45.1116 8.50651 44.4284 7.83578 43.394C7.25907 42.5165 6.95818 41.4695 6.95818 40.3537C6.95818 38.7302 7.42832 37.5203 8.46268 36.4734C9.06443 35.8654 9.6286 35.5019 10.3558 35.2574C10.8133 35.1069 11.7537 34.9753 12.0984 35.0129C12.1862 35.0254 12.4432 35.0504 12.6752 35.0693Z" fill="white"/>
<path d="M69.8494 28.8085C68.6521 28.9777 67.342 29.3915 66.2325 29.9368C65.4614 30.3192 65.4426 30.313 65.4426 29.7801C65.4426 29.4416 65.4176 29.3163 65.311 29.1846L65.1856 29.0216H61.9698C59.1677 29.0216 58.7477 29.0342 58.6223 29.1219L58.4844 29.216V43.7779C58.4844 57.8071 58.4907 58.3463 58.5973 58.4403C58.7038 58.5343 59.0235 58.5469 61.9385 58.5469C63.7125 58.5469 65.1919 58.5218 65.2295 58.4967C65.4363 58.365 65.4426 58.1833 65.4426 54.2904C65.4426 51.8959 65.4676 50.3914 65.5053 50.3663C65.5366 50.3475 65.7936 50.454 66.082 50.6108C67.2103 51.2125 68.7524 51.6827 70.0939 51.8394C71.1282 51.9648 72.8646 51.8895 73.83 51.6889C77.7604 50.8553 80.9136 48.2663 82.3867 44.6556C83.2706 42.5054 83.4775 40.1484 82.9822 37.8667C82.6876 36.4876 81.9604 34.8389 81.1267 33.6604C80.5751 32.8768 79.127 31.4287 78.356 30.8897C76.7888 29.7864 75.0462 29.0906 73.1405 28.8085C72.3318 28.6894 70.6706 28.6831 69.8494 28.8085ZM71.6924 35.1712C73.5291 35.5912 75.0211 37.0016 75.6103 38.8633C75.7357 39.2708 75.7545 39.4588 75.7545 40.3052C75.7545 41.4084 75.6667 41.8033 75.2154 42.6935C74.1873 44.7496 71.799 45.9406 69.5235 45.5457C67.5551 45.2009 66.0632 43.7592 65.5554 41.703C65.3611 40.9195 65.3611 39.6846 65.5554 38.8947C65.825 37.8165 66.4895 36.7383 67.2918 36.0863C67.7118 35.7478 68.6271 35.284 69.1097 35.1648C69.8933 34.9768 70.8461 34.9768 71.6924 35.1712Z" fill="white"/>
<path d="M105.753 28.8085C104.555 28.9903 103.183 29.4291 102.13 29.9556C101.39 30.3255 101.365 30.3192 101.365 29.7425C101.365 28.9589 101.678 29.0216 97.8854 29.0216C94.7387 29.0216 94.6512 29.0279 94.5321 29.147C94.4062 29.2724 94.4063 29.3539 94.4063 43.7843C94.4063 58.2146 94.4062 58.2961 94.5321 58.4215C94.6512 58.5405 94.7387 58.5469 97.8854 58.5469C101.032 58.5469 101.12 58.5405 101.24 58.4215C101.365 58.2961 101.365 58.2146 101.365 54.3531C101.365 51.1123 101.377 50.4039 101.446 50.3789C101.496 50.36 101.685 50.4289 101.872 50.5355C102.794 51.0433 103.998 51.4695 105.226 51.7203C106.054 51.8895 107.884 51.9523 108.812 51.8394C114.084 51.2189 118.29 47.1693 119.074 41.9601C119.199 41.1452 119.193 39.5341 119.074 38.6816C118.321 33.5538 114.29 29.5733 109.069 28.8085C108.235 28.6831 106.574 28.6894 105.753 28.8085ZM107.12 35.0708C109.175 35.2652 111.106 37.0141 111.62 39.1518C111.777 39.7786 111.758 40.9445 111.589 41.5902C111.012 43.8156 109.025 45.4454 106.687 45.6147C103.929 45.809 101.628 43.7654 101.371 40.8881C101.315 40.2362 101.377 39.3523 101.521 38.7944C101.866 37.4467 102.806 36.2368 103.998 35.5848C104.7 35.2025 105.796 34.9518 106.505 35.0144C106.624 35.027 106.906 35.052 107.12 35.0708Z" fill="white"/>
<path d="M85.3222 29.122L85.1914 29.2912L85.2039 40.1234C85.2222 50.4291 85.2289 50.9619 85.3356 51.0684C85.4414 51.175 85.6614 51.1812 88.7081 51.1812C91.8673 51.1812 91.9739 51.175 92.0614 51.0621C92.1364 50.9556 92.1489 49.3508 92.1489 40.0482V29.1533L92.0114 29.0593C91.8856 28.9715 91.4656 28.959 88.6639 28.959H85.4481L85.3222 29.122Z" fill="white"/>
<path d="M157.786 29.1655C157.704 29.2031 157.604 29.2846 157.572 29.3473C157.522 29.4225 158.337 31.7168 161.196 39.5338C163.227 45.0752 164.901 49.6827 164.913 49.7705C164.926 49.8707 164.392 51.5445 163.584 53.9517C162.838 56.1644 162.23 58.0263 162.23 58.0952C162.23 58.1578 162.28 58.2582 162.343 58.3146C162.449 58.4086 162.794 58.4212 166.035 58.4212C169.357 58.4212 169.614 58.4149 169.708 58.3083C169.758 58.2519 170.473 56.2961 171.288 53.9704C172.103 51.6447 174.41 45.1881 176.41 39.6216C179.487 31.0711 180.046 29.4852 179.995 29.341L179.939 29.178L176.485 29.1592C173.257 29.1467 173.025 29.1529 172.937 29.2532C172.887 29.3159 172.002 31.8359 170.981 34.8511C169.934 37.9291 169.069 40.3675 169.012 40.4114C168.881 40.518 168.656 40.5117 168.562 40.3989C168.524 40.3487 167.565 37.8162 166.437 34.7759C164.687 30.0619 164.362 29.2282 164.23 29.1655C164.117 29.1028 163.321 29.084 161.007 29.084C158.695 29.084 157.898 29.1028 157.786 29.1655Z" fill="white"/>
</svg>
